<svg width="24" height="24" viewBox="0 0 24 24" fill="none" xmlns="http://www.w3.org/2000/svg">
<mask id="path-1-inside-1_26340_2381" fill="white">
<path d="M0 3C0 1.34314 1.34315 0 3 0H21C22.6569 0 24 1.34315 24 3V18.6658C24 20.3227 22.6569 21.6658 21 21.6658H3C1.34315 21.6658 0 20.3227 0 18.6658V3Z"/>
</mask>
<path d="M-2 3C-2 0.238576 0.238576 -2 3 -2H21C23.7614 -2 26 0.238576 26 3H22C22 2.44772 21.5523 2 21 2H3C2.44772 2 2 2.44772 2 3H-2ZM26 20.6658C26 23.4272 23.7614 25.6658 21 25.6658H3C0.238576 25.6658 -2 23.4272 -2 20.6658L2 17.6658C2 17.6658 2.44772 17.6658 3 17.6658H21C21.5523 17.6658 22 17.6658 22 17.6658L26 20.6658ZM3 25.6658C0.238576 25.6658 -2 23.4272 -2 20.6658V3C-2 0.238576 0.238576 -2 3 -2V2C2.44772 2 2 2.44772 2 3V17.6658C2 17.6658 2.44772 17.6658 3 17.6658V25.6658ZM21 -2C23.7614 -2 26 0.238576 26 3V20.6658C26 23.4272 23.7614 25.6658 21 25.6658V17.6658C21.5523 17.6658 22 17.6658 22 17.6658V3C22 2.44772 21.5523 2 21 2V-2Z" fill="#1E212C" mask="url(#path-1-inside-1_26340_2381)"/>
<path d="M9.65217 23.1068C10.1666 21.6888 10.0918 20 11.6002 20H12.3998C13.8691 20 13.7929 21.8274 14.4734 23.1296C14.6364 23.4414 15.0836 23.6017 15.8368 23.6566C15.9276 23.6633 16 23.7381 16 23.8291V23.8291C16 23.9235 15.9235 24 15.8291 24H8.16753C8.07501 24 8 23.925 8 23.8325V23.8325C8 23.7406 8.07663 23.6661 8.16842 23.6631C9.08841 23.6335 9.53141 23.4396 9.65217 23.1068Z" fill="#1E212C"/>
</svg>
