<svg width="242" height="227" viewBox="0 0 242 227" fill="none" xmlns="http://www.w3.org/2000/svg">
<mask id="path-1-inside-1_26340_2381" fill="white">
<path d="M0 20C0 8.95429 8.9543 0 20 0H222C233.046 0 242 8.95431 242 20V184.923C242 195.968 233.046 204.923 222 204.923H20C8.95431 204.923 0 195.968 0 184.923V20Z"/>
</mask>
<path d="M-18 20C-18 -0.98682 -0.98682 -18 20 -18H222C242.987 -18 260 -0.98682 260 20H224C224 18.8954 223.105 18 222 18H20C18.8954 18 18 18.8954 18 20H-18ZM260 214.923C260 235.91 242.987 252.923 222 252.923H20C-0.98682 252.923 -18 235.91 -18 214.923L18 156.923C18 156.923 18.8954 156.923 20 156.923H222C223.105 156.923 224 156.923 224 156.923L260 214.923ZM20 252.923C-0.98682 252.923 -18 235.91 -18 214.923V20C-18 -0.98682 -0.98682 -18 20 -18V18C18.8954 18 18 18.8954 18 20V156.923C18 156.923 18.8954 156.923 20 156.923V252.923ZM222 -18C242.987 -18 260 -0.98682 260 20V214.923C260 235.91 242.987 252.923 222 252.923V156.923C223.105 156.923 224 156.923 224 156.923V20C224 18.8954 223.105 18 222 18V-18Z" fill="#1E212C" mask="url(#path-1-inside-1_26340_2381)"/>
<path d="M103.073 217.256C103.414 204.312 106.643 191 119.591 191H122.268C134.99 191 137.762 205.024 139.712 217.596C140.304 221.412 143.827 223.295 150.545 223.893C151.359 223.966 152 224.638 152 225.456V225.456C152 226.309 151.309 227 150.456 227H91.509C90.6756 227 90 226.324 90 225.491V225.491C90 224.665 90.6815 223.995 91.5071 223.96C99.7483 223.616 102.968 221.261 103.073 217.256Z" fill="#1E212C"/>
</svg>
