<svg width="38" height="37" viewBox="0 0 38 37" fill="none" xmlns="http://www.w3.org/2000/svg">
<path d="M19 9.90566H17.1157C17.0388 9.90566 16.9619 9.89848 16.8863 9.8842C15.8926 9.69672 15.5309 8.46145 16.2664 7.76757L21.5 2.83019L22.3815 2.11735C24.0757 0.747374 26.1886 0 28.3674 0H28.532C29.8279 0 31.1078 0.28671 32.2799 0.839577C33.7322 1.5246 34.9689 2.59455 35.8557 3.93314L35.97 4.10571C36.6478 5.12872 37.0838 6.29259 37.245 7.50911C37.4126 8.77436 37.2783 10.0613 36.8531 11.2647L36.7529 11.5484C36.2581 12.9488 35.4365 14.2109 34.3562 15.23L26.5011 22.6405C24.8947 24.1559 22.7699 25 20.5616 25C18.5807 25 16.6597 24.3205 15.1193 23.0749L14.2923 22.4062C14.0987 22.2496 13.9319 22.0627 13.7982 21.8526L13.7331 21.7502C13.0626 20.6959 13.4123 19.2949 14.4997 18.6794C14.8276 18.4938 15.1981 18.3962 15.5749 18.3962H15.7161C16.2283 18.3962 16.73 18.5409 17.1636 18.8136L18 19.3396L19.0927 20.1127C19.683 20.5304 20.3883 20.7547 21.1115 20.7547C22.0033 20.7547 22.8613 20.4138 23.51 19.8019L31.3355 12.4193C32.09 11.7075 32.5844 10.7635 32.7397 9.73788L32.764 9.57766C32.9162 8.57256 32.6995 7.54634 32.1539 6.68856C31.7267 6.0169 31.1179 5.48012 30.3979 5.14053L29.759 4.83913C28.9438 4.45463 28.0224 4.35793 27.1452 4.56481C26.718 4.66557 26.3104 4.83623 25.9389 5.0699L25.4503 5.37718C25.1505 5.56574 24.8645 5.77543 24.5945 6.00466L20.7623 9.25843C20.2702 9.67627 19.6456 9.90566 19 9.90566Z" fill="#1E212C"/>
<path d="M18.5 26.5943H20.3843C20.4612 26.5943 20.5381 26.6015 20.6137 26.6158C21.6074 26.8033 21.9691 28.0385 21.2336 28.7324L16 33.6698L15.1185 34.3826C13.4243 35.7526 11.3114 36.5 9.13258 36.5H8.96798C7.67205 36.5 6.39218 36.2133 5.2201 35.6604C3.76785 34.9754 2.53111 33.9055 1.64429 32.5669L1.52997 32.3943C0.852221 31.3713 0.416231 30.2074 0.255043 28.9909C0.0873966 27.7256 0.221666 26.4387 0.646864 25.2353L0.747118 24.9516C1.2419 23.5512 2.06354 22.2891 3.14383 21.27L10.9989 13.8595C12.6053 12.3441 14.7301 11.5 16.9384 11.5C18.9193 11.5 20.8403 12.1795 22.3807 13.4251L23.2077 14.0938C23.4013 14.2504 23.5681 14.4373 23.7018 14.6474L23.7669 14.7498C24.4374 15.8041 24.0877 17.2051 23.0003 17.8206C22.6724 18.0062 22.3019 18.1038 21.9251 18.1038H21.7839C21.2717 18.1038 20.77 17.9591 20.3364 17.6864L19.5 17.1604L18.4073 16.3873C17.817 15.9696 17.1117 15.7453 16.3885 15.7453C15.4967 15.7453 14.6387 16.0862 13.99 16.6981L6.1645 24.0807C5.40997 24.7925 4.91561 25.7365 4.76031 26.7621L4.73605 26.9223C4.58385 27.9274 4.80053 28.9537 5.34607 29.8114C5.77325 30.4831 6.38214 31.0199 7.10207 31.3595L7.74104 31.6609C8.55618 32.0454 9.47761 32.1421 10.3548 31.9352C10.782 31.8344 11.1896 31.6638 11.5611 31.4301L12.0497 31.1228C12.3495 30.9343 12.6355 30.7246 12.9055 30.4953L16.7377 27.2416C17.2298 26.8237 17.8544 26.5943 18.5 26.5943Z" fill="#1E212C"/>
</svg>
