<svg width="149" height="148" viewBox="0 0 149 148" fill="none" xmlns="http://www.w3.org/2000/svg">
  <path d="M141.5 121.5H143C145.209 121.5 147 119.709 147 117.5V6C147 3.79086 145.209 2 143 2H6C3.79086 2 2 3.79086 2 6V117.5C2 119.709 3.79086 121.5 6 121.5H67.5" stroke="black" stroke-width="4" stroke-linecap="round"/>
  <path d="M134 12H52" stroke="black" stroke-width="4" stroke-linecap="round"/>
  <path d="M147 22H2.5" stroke="black" stroke-width="4" stroke-linecap="round"/>
  <path d="M15 99H47.5" stroke="black" stroke-width="4" stroke-linecap="round"/>
  <path d="M15 109.5H27.5" stroke="black" stroke-width="4" stroke-linecap="round"/>
  <path d="M47.5 76H56.5M67 83V42.5C67 40.2909 65.2091 38.5 63 38.5H20.5C18.2909 38.5 16.5 40.2909 16.5 42.5V83C16.5 85.2091 18.2909 87 20.5 87H63C65.2091 87 67 85.2091 67 83Z" stroke="black" stroke-width="4" stroke-linecap="round"/>
  <path d="M34 38.5V56.4194C34 57.2579 34.9699 57.7241 35.6247 57.2002L40.8533 53.0174C41.2285 52.7172 41.764 52.7263 42.1288 53.039L46.8492 57.085C47.4979 57.641 48.5 57.1801 48.5 56.3258V38.5" stroke="black" stroke-width="4" stroke-linecap="round"/>
  <path d="M90.5 77H86.5C84.2909 77 82.5 75.2091 82.5 73V61C82.5 58.7909 84.2909 57 86.5 57H129C131.209 57 133 58.7909 133 61V73C133 75.2091 131.209 77 129 77H121" stroke="black" stroke-width="4" stroke-linecap="round"/>
  <path d="M99 70.5V111.949C99 116.167 94.0985 118.49 90.8338 115.819L86.6481 112.394C84.4257 110.576 81.1198 111.07 79.527 113.459C78.3265 115.26 78.4615 117.638 79.8583 119.291L100.502 143.727C101.452 144.851 102.849 145.5 104.321 145.5H128.5C131.261 145.5 133.5 143.261 133.5 140.5V108.555C133.5 106.426 132.153 104.531 130.143 103.832L113.857 98.1678C111.847 97.4686 110.5 95.5736 110.5 93.4453V70.5C110.5 67.7386 108.261 65.5 105.5 65.5H104C101.239 65.5 99 67.7386 99 70.5Z" stroke="black" stroke-width="4" stroke-linecap="round"/>
  <circle cx="28" cy="12" r="2" fill="black"/>
  <circle cx="20" cy="12" r="2" fill="black"/>
  <circle cx="12" cy="12" r="2" fill="black"/>
</svg>  